PathFileType	3	(X/Y/Z)	D:\Jess\Healthy\Labelled\HA16\20250507\SRRun02.trc
DataRate	CameraRate	NumFrames	NumMarkers	Units	OrigDataRate	OrigDataStartFrame	OrigNumFrames
250.0	250.0	5	37	mm	250.0	36250	2501
Frame#	Time	C7			T10			CLAV			LSHO			RSHO			LASIS			RASIS			LPSIS			RPSIS			LILCR			RILCR			LGTR			LTHI			LLTHI			LLEP			LMEP			LPSH			LLSH			LDSH			LLMAL			LMMAL			LTOE			L5TH			LHEE			RGTR			RTHI			RLTHI			RLEP			RMEP			RPSH			RLSH			RDSH			RLMAL			RMMAL			RTOE			R5TH			RHEE			
		X1	Y1	Z1	X2	Y2	Z2	X3	Y3	Z3	X4	Y4	Z4	X5	Y5	Z5	X6	Y6	Z6	X7	Y7	Z7	X8	Y8	Z8	X9	Y9	Z9	X10	Y10	Z10	X11	Y11	Z11	X12	Y12	Z12	X13	Y13	Z13	X14	Y14	Z14	X15	Y15	Z15	X16	Y16	Z16	X17	Y17	Z17	X18	Y18	Z18	X19	Y19	Z19	X20	Y20	Z20	X21	Y21	Z21	X22	Y22	Z22	X23	Y23	Z23	X24	Y24	Z24	X25	Y25	Z25	X26	Y26	Z26	X27	Y27	Z27	X28	Y28	Z28	X29	Y29	Z29	X30	Y30	Z30	X31	Y31	Z31	X32	Y32	Z32	X33	Y33	Z33	X34	Y34	Z34	X35	Y35	Z35	X36	Y36	Z36	X37	Y37	Z37	

1251	144.996	1081.117064722612	1390.915920369215	-372.3552022977344	1016.406267666944	1166.384293467813	-397.2960617308232	1198.596171487456	1304.988525151644	-315.7544377233679	1091.877395494891	1354.693320060905	-220.2965238716645	1189.333893566356	1367.742753902061	-463.1962585739832	1176.302214656373	924.9513485203224	-454.6812103420195	1162.89256275135	948.5520063033682	-239.5292549844179	1000.648622635122	995.5688161866908	-380.4532316531597	995.90149791621	992.3016357586592	-332.6040127755657	1154.454072776992	1013.299068550383	-480.1132159788478	1092.479330567196	1028.236454111558	-208.5293234978992	1077.595733525555	857.7433815531972	-524.3314652306935	1108.127516639459	676.0908952614003	-458.7120633434718	974.9764250091645	642.2167725869413	-493.7788282879398	907.5762939402135	521.2920416923189	-476.5145196859821	nan	nan	nan	913.8087167280949	417.5914775112298	-424.800734393294	789.2993988838713	378.0158099255286	-484.3664543634482	799.286676074644	268.9379073896413	-425.8038532375572	695.7574134980554	212.0297559432526	-455.1069395912093	nan	nan	nan	742.5802370685789	77.61643186479775	-441.830630878373	692.6351901018303	86.22303064632287	-474.2439608520538	642.0782459032716	248.6424818357671	-402.9372793094197	1095.860699853386	873.7716000313513	-160.905249543194	1238.767007566133	771.898602546486	-260.1766832217938	1179.225657235557	649.938403584243	-197.5254830539854	1221.203407774234	513.1056964781865	-221.7714381197382	nan	nan	nan	1286.717657944864	443.6926240061011	-267.4350391236384	1238.884842500119	336.8960301160644	-206.7102853673581	1297.412953746319	236.720433065329	-261.6572016355626	1258.207920110247	137.5438127654663	-236.1439451079869	nan	nan	nan	1393.068678481183	125.1839177512983	-234.518578271449	1366.307096251307	91.36346032000506	-207.0960051570327	1203.191009306617	99.34722330641418	-285.9785120708599	
1252	145	1081.491670446074	1391.254851887493	-371.7622769071234	1016.771195687431	1166.964101521741	-396.8860888165014	1198.503454461749	1305.717871473842	-314.6682427206575	1091.799397285641	1355.017761267178	-219.756076164378	1189.783864857242	1368.260187298993	-462.0679468652822	1176.964149838471	925.9904043148784	-454.1044249660138	1163.425176384796	949.132491026746	-239.6595107803063	1001.485714214433	996.8716765335541	-380.2804336014252	996.7283584602617	993.4909722329654	-332.4708331430854	1155.506927462948	1014.40037418821	-479.2427287356982	1093.001960879161	1028.73957588673	-208.107666275946	1078.419446451116	859.1117903357273	-524.2955538612223	1108.569539851804	676.7961998697222	-459.131165648757	975.3447971284459	643.2995166613645	-493.7220722243396	907.8683586286063	522.1207840245095	-476.2699176477635	nan	nan	nan	912.7024521053227	418.2140543368713	-424.769143223295	787.6092851271853	380.496528797888	-484.4141234083652	795.8302812901064	271.363980607696	-425.9452839151967	691.4738638780764	216.4695277963396	-455.3565982707302	nan	nan	nan	734.9250989790963	80.80965237261114	-442.2205418412937	685.0253986572244	90.60870981700765	-474.3167235286913	639.0442850533467	254.5473099274361	-402.9756299042061	1096.640933113146	874.1317207873229	-161.0752756198007	1238.830218237231	769.4446552872706	-259.7295696719332	1177.553135406678	648.6452079867738	-197.1576263732799	1219.383930286552	511.6329410009035	-221.5072293980614	nan	nan	nan	1285.870953523908	443.5448721391778	-267.64528934177	1240.647565232636	335.7623881644495	-206.708076776299	1301.738312356711	237.1064969348393	-261.7295288610296	1265.075449133417	136.7822094699503	-236.4145805364837	nan	nan	nan	1400.291440693059	128.5562149040473	-234.3771198131797	1374.548111141838	93.89317282906116	-207.0750701914504	1211.416921580141	96.80716002041301	-286.3845898288879	
1253	145.004	1081.88322871526	1391.469922692048	-371.0994453354118	1017.070039819061	1167.394376004044	-396.4119168876724	1198.443836016569	1306.228574730531	-313.5947169270264	1091.784447239009	1355.155775293886	-219.1412778912297	1190.226607321981	1368.596119245727	-460.9844972154733	1177.557716934584	926.9008944934797	-453.5634508274825	1163.920725583901	949.4625586931837	-239.7247909129212	1002.227680426488	997.9566461912508	-380.0934983046808	997.4579207787383	994.4621260739159	-332.3206885183317	1156.345478275317	1015.321911266078	-478.4351823342602	1093.456626359159	1028.994664818173	-207.6499663370826	1079.220988851432	860.3193307985008	-524.2723493519139	1109.203284381244	677.3826392367057	-459.4645423599921	976.005167860527	644.0120746079376	-493.6122370968973	908.6206316013929	522.5302160592684	-475.9644562695285	nan	nan	nan	911.8960860932672	418.4681833907331	-424.6375934044696	786.2415585098526	382.7817852997386	-484.4376784021608	792.4753550862087	273.6628971781528	-425.9798339052493	687.2458594677263	220.9369134000335	-455.5627250584577	nan	nan	nan	727.4053901589689	84.19170172234512	-442.5889208269147	677.6129431469662	95.1645385510185	-474.4352188985355	636.0082395176696	260.3761702829053	-403.0100790935305	1097.328892317664	874.1067194772144	-161.2728873332688	1238.695899079835	766.5352759890695	-259.3041148131581	1175.930105162166	647.0910261510384	-196.7207370468132	1217.658256468983	510.107585151434	-221.2391732501804	nan	nan	nan	1284.977610087721	443.317120159944	-267.8450559239013	1242.079105876708	334.6741305579338	-206.7776179362516	1305.542677368791	237.4883588000588	-261.8482324666816	1271.187354820411	136.1426504479797	-236.8044997936681	nan	nan	nan	1406.620275479281	131.7476383614537	-234.162837403059	1381.803274276266	96.30615909232628	-207.0502393233825	1218.915802888447	94.53460543422617	-287.0130911962229	
1254	145.008	1082.29104063243	1391.560566424372	-370.3664771189938	1017.304969494262	1167.677989970578	-395.883926910396	1198.417233659688	1306.518011358679	-312.5359869445166	1091.827134635078	1355.107299662795	-218.4564136622381	1190.665911049577	1368.750065908011	-459.9441905836756	1178.087375052831	927.6787296885942	-453.0602370443972	1164.376969968945	949.5493161653754	-239.7223525226759	1002.875242919781	998.80906949155	-379.8894301182129	998.0888176475896	995.2000301966867	-332.1506724526072	1156.965055953236	1016.060478946326	-477.6952689674767	1093.842139958764	1029.012119945023	-207.1702159707972	1080.003450589258	861.3494001000221	-524.2569582403573	1110.022990373534	677.8398770110267	-459.6945897136421	976.9516435076505	644.3442578794527	-493.4500590786686	909.8109744061177	522.5293644972544	-475.6033084363307	nan	nan	nan	911.3793582548943	418.3657168390596	-424.4195655849184	785.1863506132742	384.8828944312083	-484.4389035429116	789.2358272650426	275.8427738436811	-425.9252596307084	683.099048968674	225.4233640010716	-455.7357766283191	nan	nan	nan	720.0442023604747	87.74179042753211	-442.9397152167422	670.4198717333807	99.86940586480145	-474.6034033984002	632.9924380189478	266.1295349259489	-403.0511470208989	1097.914089956453	873.6986541436269	-161.4874273794818	1238.358865667545	763.2168348697573	-258.9074724098616	1174.369236908065	645.2978677627121	-196.2236856813081	1216.033963736904	508.539090113482	-220.9732638379285	nan	nan	nan	1284.047699251608	443.0029900478222	-268.0280945058408	1243.172847671784	333.6068211821338	-206.9199109157473	1308.809569320525	237.8240664387779	-262.0192835125746	1276.51152801678	135.5757849568081	-237.3150341027027	nan	nan	nan	1412.04583449278	134.6838669449041	-233.898532304862	1388.05559840773	98.52064583174881	-207.0412158646151	1225.630927790986	92.49243623853634	-287.8574254290889	
1255	145.012	1082.713692785721	1391.525263331877	-369.5646347150065	1017.478819171524	1167.817646398968	-395.3121929551701	1198.423001659997	1306.584275601126	-311.4950954787558	1091.922217413646	1354.872533669564	-217.7071638195236	1191.104731454119	1368.721515388472	-458.9443397824998	1178.557953376941	928.3196291135525	-452.5967243231309	1164.791669929398	949.4006317757714	-239.6508994719332	1003.430207219781	999.4149647779675	-379.664760798924	998.6210109410671	995.6899797404548	-331.9575095864486	1157.364606789314	1016.613813477308	-477.0277096451708	1094.157885362812	1028.80209960445	-206.6817517690691	1080.769492307492	862.1855619078268	-524.2444191286557	1111.021129258981	678.157209187136	-459.8073365098973	978.1752189897588	644.2907980835855	-493.237659908286	911.4134477978325	522.1327956343292	-475.1926960307496	nan	nan	nan	911.1425024372415	417.9227697831105	-424.1304991599413	784.4342429420135	386.81250474188	-484.4187362744944	786.1294180912498	277.9118350966529	-425.8006159944507	679.0638052086667	229.9196344395284	-455.8861225999647	nan	nan	nan	712.8659370254542	91.43762089022771	-443.2777706694719	663.4683677163079	104.701485027462	-474.8236686157721	630.0274998484413	271.8083475226109	-403.1078059644478	1098.386725186153	872.9143349622752	-161.7072595071929	1237.82211835821	759.5475786682831	-258.5449824347446	1172.881451594025	643.2913381877861	-195.6784283936123	1214.514712698198	506.9348787565986	-220.7159210056917	nan	nan	nan	1283.089761779218	442.5929284035378	-268.1872119471075	1243.923966960022	332.5346303624274	-207.1350885671692	1311.526410371882	238.0704267191385	-262.2471873020586	1281.023348493386	135.0324794141707	-237.9451986334817	nan	nan	nan	1416.566301896205	137.292953383647	-233.6097049406542	1393.297054128683	100.4588818908265	-207.0680555916742	1231.512568995244	90.64256800072083	-288.9064605397074	
